<svg width="698" height="698" viewBox="0 0 698 698" fill="none" xmlns="http://www.w3.org/2000/svg">
<g clip-path="url(#clip0_1071_2044)">
<rect y="348.604" width="493" height="493" rx="246.5" transform="rotate(-45 0 348.604)" fill="#FF5A20"/>
<mask id="mask0_1071_2044" style="mask-type:alpha" maskUnits="userSpaceOnUse" x="102" y="102" width="494" height="494">
<circle cx="348.604" cy="348.604" r="246.5" transform="rotate(-45 348.604 348.604)" fill="#031849"/>
</mask>
<g mask="url(#mask0_1071_2044)">
<path d="M151.671 535.63L165.807 549.765C171.131 555.09 180.193 550.78 179.422 543.289L179.113 540.296C178.738 536.644 180.895 533.205 184.347 531.955L221.376 518.544C226.846 516.563 228.402 509.569 224.289 505.455C220.236 501.403 221.677 494.523 227.015 492.437L261.73 478.87C267.003 476.809 268.426 470.012 264.423 466.009C260.307 461.893 261.945 454.886 267.459 453.022L296.47 443.215C301.846 441.397 303.443 434.566 299.43 430.554C295.418 426.541 297.015 419.71 302.391 417.893L332.127 407.839C337.307 406.088 338.846 399.507 334.98 395.641C330.966 391.627 332.803 384.773 338.286 383.304L361.261 377.153C366.815 375.665 368.77 368.787 364.828 364.6C361.13 360.673 362.586 354.252 367.615 352.303L400.274 339.646C405.744 337.665 407.3 330.671 403.187 326.557C399.134 322.505 400.575 315.625 405.913 313.539L440.628 299.972C445.901 297.911 447.324 291.114 443.321 287.111C439.205 282.995 440.843 275.988 446.357 274.124L475.368 264.317C480.744 262.499 482.341 255.668 478.328 251.656C474.316 247.643 475.913 240.812 481.289 238.995L511.025 228.941C516.205 227.19 517.744 220.609 513.878 216.743C509.864 212.729 511.701 205.875 517.184 204.406L540.344 198.205C545.723 196.765 547.525 190.041 543.587 186.104L541.812 184.328C538.743 181.259 540.064 176.025 544.221 174.78C550.62 172.864 549.13 163.409 542.451 163.555L519.714 164.049C514.283 164.167 511.644 170.739 515.485 174.581C518.726 177.822 517.427 183.34 513.081 184.795L482.278 195.109C476.917 196.904 475.314 203.712 479.313 207.71C483.28 211.677 481.738 218.428 476.441 220.279L446.485 230.745C441.078 232.634 439.504 239.524 443.553 243.573C447.546 247.566 446.081 254.348 440.798 256.338L408.057 268.67C402.722 270.679 401.243 277.528 405.275 281.56C409.322 285.607 407.813 292.486 402.443 294.468L370.658 306.199C365.307 308.174 363.804 315.028 367.837 319.061C371.869 323.093 370.366 329.947 365.016 331.922L338.406 338.62C332.931 340.641 331.392 347.655 335.519 351.782C339.427 355.69 337.869 362.342 332.633 364.108L303.357 373.985C297.999 375.793 296.406 382.599 300.404 386.597C304.376 390.57 302.832 397.329 297.528 399.182L267.587 409.643C262.18 411.532 260.606 418.422 264.655 422.471C268.648 426.464 267.184 433.246 261.9 435.236L229.159 447.568C223.824 449.577 222.345 456.426 226.377 460.458C230.424 464.505 228.915 471.384 223.545 473.366L191.76 485.097C186.409 487.072 184.906 493.926 188.939 497.959C192.971 501.991 191.468 508.845 186.118 510.82L154.558 522.468C149.083 524.489 147.544 531.503 151.671 535.63Z" fill="#031849"/>
<path d="M179.956 585.127L194.091 599.262C199.415 604.587 208.477 600.277 207.706 592.786L207.398 589.793C207.022 586.141 209.18 582.702 212.631 581.452L249.66 568.041C255.13 566.06 256.686 559.066 252.573 554.952C248.52 550.9 249.961 544.02 255.299 541.934L290.014 528.367C295.287 526.306 296.711 519.509 292.707 515.506C288.591 511.39 290.23 504.384 295.743 502.519L324.754 492.712C330.13 490.894 331.727 484.063 327.714 480.051C323.702 476.038 325.299 469.207 330.675 467.39L360.411 457.336C365.591 455.585 367.13 449.004 363.264 445.138C359.25 441.124 361.087 434.27 366.57 432.802L389.545 426.65C395.1 425.163 397.055 418.284 393.112 414.097C389.415 410.17 390.87 403.749 395.899 401.8L428.558 389.143C434.028 387.162 435.584 380.168 431.471 376.054C427.418 372.002 428.859 365.122 434.197 363.036L468.912 349.469C474.185 347.408 475.609 340.611 471.605 336.608C467.489 332.492 469.128 325.486 474.641 323.621L503.652 313.814C509.028 311.996 510.625 305.165 506.612 301.153C502.6 297.14 504.197 290.309 509.573 288.492L539.309 278.438C544.489 276.687 546.028 270.106 542.162 266.24C538.148 262.226 539.985 255.372 545.468 253.904L568.628 247.702C574.007 246.262 575.809 239.538 571.871 235.601L570.096 233.825C567.027 230.756 568.348 225.522 572.505 224.277C578.904 222.361 577.414 212.907 570.736 213.052L547.998 213.546C542.567 213.664 539.928 220.236 543.769 224.078C547.01 227.319 545.712 232.837 541.365 234.292L510.562 244.606C505.201 246.401 503.599 253.209 507.597 257.207C511.564 261.175 510.022 267.925 504.725 269.776L474.769 280.242C469.362 282.131 467.788 289.021 471.837 293.071C475.83 297.063 474.366 303.846 469.082 305.836L436.341 318.167C431.006 320.177 429.527 327.026 433.559 331.057C437.606 335.104 436.097 341.983 430.728 343.965L398.942 355.697C393.592 357.671 392.088 364.525 396.121 368.558C400.153 372.59 398.65 379.444 393.3 381.419L366.69 388.117C361.215 390.138 359.676 397.152 363.803 401.279C367.711 405.187 366.153 411.839 360.917 413.605L331.641 423.483C326.284 425.29 324.69 432.096 328.688 436.094C332.66 440.067 331.116 446.826 325.812 448.679L295.871 459.14C290.464 461.029 288.89 467.919 292.939 471.969C296.932 475.961 295.468 482.744 290.184 484.734L257.443 497.065C252.108 499.075 250.629 505.924 254.661 509.955C258.708 514.002 257.199 520.881 251.83 522.863L220.044 534.595C214.694 536.569 213.19 543.423 217.223 547.456C221.255 551.488 219.752 558.342 214.402 560.317L182.842 571.965C177.367 573.986 175.829 581 179.956 585.127Z" fill="#031849"/>
<path d="M213.189 629.675L227.325 643.81C232.649 649.135 241.711 644.825 240.94 637.334L240.632 634.34C240.256 630.689 242.414 627.25 245.865 625.999L282.894 612.589C288.364 610.608 289.92 603.614 285.807 599.5C281.754 595.448 283.195 588.568 288.533 586.482L323.248 572.915C328.521 570.854 329.945 564.057 325.941 560.053C321.825 555.938 323.463 548.931 328.977 547.067L357.988 537.26C363.364 535.442 364.961 528.611 360.948 524.599C356.936 520.586 358.533 513.755 363.909 511.938L393.645 501.884C398.825 500.133 400.364 493.552 396.498 489.686C392.484 485.672 394.321 478.818 399.804 477.349L422.779 471.198C428.334 469.71 430.289 462.832 426.346 458.645C422.648 454.718 424.104 448.297 429.133 446.348L461.792 433.691C467.262 431.71 468.818 424.716 464.705 420.602C460.652 416.55 462.093 409.67 467.431 407.584L502.146 394.017C507.419 391.956 508.843 385.159 504.839 381.155C500.723 377.04 502.361 370.033 507.875 368.169L536.886 358.362C542.262 356.544 543.859 349.713 539.846 345.701C535.834 341.688 537.431 334.857 542.807 333.04L572.543 322.986C577.723 321.235 579.262 314.654 575.396 310.788C571.382 306.774 573.219 299.92 578.702 298.451L601.862 292.25C607.241 290.81 609.043 284.086 605.105 280.149L603.33 278.373C600.261 275.304 601.582 270.07 605.739 268.825C612.138 266.909 610.648 257.454 603.969 257.6L581.232 258.094C575.801 258.212 573.162 264.784 577.003 268.626C580.244 271.867 578.946 277.385 574.599 278.84L543.796 289.154C538.435 290.949 536.832 297.757 540.831 301.755C544.798 305.722 543.256 312.473 537.959 314.324L508.003 324.79C502.596 326.679 501.022 333.569 505.071 337.618C509.064 341.611 507.6 348.393 502.316 350.383L469.575 362.715C464.24 364.724 462.761 371.573 466.793 375.605C470.84 379.652 469.331 386.531 463.962 388.513L432.176 400.244C426.825 402.219 425.322 409.073 429.355 413.105C433.387 417.138 431.884 423.992 426.534 425.967L399.924 432.665C394.449 434.686 392.91 441.7 397.037 445.827C400.945 449.735 399.387 456.387 394.151 458.153L364.875 468.03C359.517 469.838 357.924 476.644 361.922 480.642C365.894 484.614 364.35 491.374 359.046 493.227L329.105 503.688C323.698 505.577 322.124 512.467 326.173 516.516C330.166 520.509 328.702 527.291 323.418 529.281L290.677 541.613C285.342 543.622 283.863 550.471 287.895 554.503C291.942 558.55 290.433 565.429 285.064 567.411L253.278 579.142C247.927 581.117 246.424 587.971 250.457 592.003C254.489 596.036 252.986 602.89 247.636 604.865L216.076 616.513C210.601 618.534 209.063 625.548 213.189 629.675Z" fill="#031849"/>
<path d="M245.716 674.93L259.852 689.065C265.176 694.39 274.237 690.079 273.467 682.589L273.158 679.595C272.782 675.943 274.94 672.504 278.392 671.254L315.421 657.843C320.891 655.863 322.447 648.868 318.334 644.755C314.281 640.702 315.722 633.823 321.06 631.737L355.775 618.169C361.048 616.108 362.471 609.312 358.468 605.308C354.352 601.193 355.99 594.186 361.504 592.322L390.515 582.514C395.891 580.697 397.488 573.866 393.475 569.853C389.463 565.841 391.06 559.01 396.436 557.192L426.172 547.139C431.352 545.388 432.891 538.807 429.024 534.94C425.01 530.927 426.848 524.073 432.331 522.604L455.306 516.453C460.86 514.965 462.815 508.087 458.873 503.9C455.175 499.973 456.631 493.552 461.66 491.602L494.319 478.945C499.789 476.965 501.345 469.97 497.232 465.857C493.179 461.804 494.62 454.925 499.958 452.839L534.673 439.271C539.946 437.21 541.369 430.414 537.366 426.41C533.25 422.295 534.888 415.288 540.402 413.424L569.413 403.616C574.789 401.799 576.386 394.968 572.373 390.955C568.361 386.943 569.958 380.112 575.334 378.294L605.07 368.241C610.25 366.49 611.789 359.909 607.922 356.042C603.908 352.029 605.746 345.175 611.229 343.706L634.388 337.505C639.768 336.065 641.57 329.341 637.632 325.403L635.856 323.628C632.788 320.559 634.108 315.325 638.266 314.08C644.665 312.164 643.174 302.709 636.496 302.854L613.759 303.349C608.328 303.467 605.689 310.039 609.53 313.881C612.771 317.122 611.472 322.64 607.126 324.095L576.323 334.409C570.961 336.204 569.359 343.012 573.357 347.01C577.325 350.977 575.783 357.728 570.486 359.578L540.53 370.044C535.123 371.933 533.549 378.824 537.598 382.873C541.591 386.866 540.126 393.648 534.843 395.638L502.102 407.97C496.767 409.979 495.288 416.828 499.319 420.86C503.367 424.907 501.858 431.786 496.488 433.768L464.702 445.499C459.352 447.474 457.849 454.328 461.882 458.36C465.914 462.393 464.411 469.247 459.061 471.221L432.451 477.92C426.976 479.941 425.437 486.955 429.564 491.082C433.472 494.989 431.914 501.642 426.678 503.408L397.401 513.285C392.044 515.093 390.451 521.899 394.448 525.897C398.421 529.869 396.877 536.629 391.573 538.482L361.632 548.942C356.225 550.831 354.651 557.722 358.7 561.771C362.693 565.764 361.228 572.546 355.945 574.536L323.204 586.868C317.869 588.877 316.39 595.726 320.421 599.758C324.469 603.805 322.96 610.684 317.59 612.666L285.804 624.397C280.454 626.372 278.951 633.226 282.984 637.258C287.016 641.291 285.513 648.145 280.163 650.119L248.603 661.768C243.128 663.789 241.589 670.803 245.716 674.93Z" fill="#031849"/>
<path d="M284.607 713.82L298.743 727.956C304.067 733.28 313.129 728.97 312.358 721.48L312.049 718.486C311.674 714.834 313.831 711.395 317.283 710.145L354.312 696.734C359.782 694.753 361.338 687.759 357.225 683.646C353.172 679.593 354.613 672.714 359.951 670.627L394.666 657.06C399.939 654.999 401.362 648.203 397.359 644.199C393.243 640.083 394.881 633.077 400.395 631.213L429.406 621.405C434.782 619.588 436.379 612.757 432.366 608.744C428.354 604.731 429.951 597.9 435.327 596.083L465.063 586.03C470.243 584.279 471.782 577.697 467.916 573.831C463.902 569.817 465.739 562.963 471.222 561.495L494.197 555.343C499.752 553.856 501.706 546.977 497.764 542.791C494.066 538.864 495.522 532.442 500.551 530.493L533.21 517.836C538.68 515.855 540.236 508.861 536.123 504.748C532.07 500.695 533.511 493.816 538.849 491.729L573.564 478.162C578.837 476.101 580.26 469.305 576.257 465.301C572.141 461.185 573.779 454.179 579.293 452.315L608.304 442.507C613.68 440.69 615.277 433.859 611.264 429.846C607.252 425.833 608.849 419.002 614.225 417.185L643.961 407.132C649.141 405.381 650.68 398.799 646.814 394.933C642.8 390.919 644.637 384.065 650.12 382.597L673.28 376.396C678.659 374.955 680.461 368.232 676.523 364.294L674.748 362.518C671.679 359.449 673 354.216 677.157 352.971C683.556 351.054 682.066 341.6 675.387 341.745L652.65 342.239C647.219 342.357 644.58 348.93 648.421 352.771C651.662 356.012 650.363 361.53 646.017 362.986L615.214 373.3C609.853 375.095 608.25 381.902 612.249 385.9C616.216 389.868 614.674 396.618 609.377 398.469L579.421 408.935C574.014 410.824 572.44 417.714 576.489 421.764C580.482 425.756 579.018 432.539 573.734 434.529L540.993 446.86C535.658 448.87 534.179 455.719 538.211 459.75C542.258 463.797 540.749 470.676 535.38 472.658L503.594 484.39C498.243 486.365 496.74 493.218 500.773 497.251C504.805 501.284 503.302 508.137 497.952 510.112L471.342 516.811C465.867 518.831 464.328 525.846 468.455 529.973C472.363 533.88 470.805 540.532 465.569 542.299L436.293 552.176C430.935 553.983 429.342 560.789 433.34 564.787C437.312 568.76 435.768 575.519 430.464 577.372L400.523 587.833C395.116 589.722 393.542 596.612 397.591 600.662C401.584 604.654 400.12 611.437 394.836 613.427L362.095 625.758C356.76 627.768 355.281 634.617 359.313 638.648C363.36 642.695 361.851 649.574 356.482 651.556L324.696 663.288C319.345 665.263 317.842 672.116 321.875 676.149C325.907 680.182 324.404 687.035 319.054 689.01L287.494 700.658C282.019 702.679 280.481 709.693 284.607 713.82Z" fill="#031849"/>
<path d="M119.144 490.375L133.279 504.51C138.604 509.835 147.665 505.525 146.894 498.035L146.586 495.041C146.21 491.389 148.368 487.95 151.82 486.7L188.849 473.289C194.318 471.308 195.875 464.314 191.761 460.2C187.709 456.148 189.149 449.268 194.487 447.182L229.202 433.615C234.476 431.554 235.899 424.757 231.896 420.754C227.78 416.638 229.418 409.632 234.932 407.768L263.942 397.96C269.318 396.142 270.915 389.311 266.903 385.299C262.89 381.286 264.487 374.455 269.863 372.638L299.6 362.585C304.779 360.833 306.318 354.252 302.452 350.386C298.438 346.372 300.275 339.518 305.759 338.05L328.733 331.898C334.288 330.411 336.243 323.532 332.301 319.345C328.603 315.419 330.058 308.997 335.088 307.048L367.747 294.391C373.216 292.41 374.773 285.416 370.659 281.302C366.607 277.25 368.047 270.37 373.385 268.284L408.1 254.717C413.374 252.656 414.797 245.859 410.794 241.856C406.678 237.74 408.316 230.734 413.83 228.87L442.84 219.062C448.216 217.244 449.813 210.413 445.801 206.401C441.788 202.388 443.385 195.557 448.761 193.74L478.498 183.687C483.677 181.935 485.216 175.354 481.35 171.488C477.336 167.474 479.173 160.62 484.657 159.152L507.816 152.95C513.195 151.51 514.998 144.786 511.06 140.849L509.284 139.073C506.215 136.004 507.536 130.771 511.694 129.525C518.093 127.609 516.602 118.155 509.924 118.3L487.187 118.794C481.755 118.912 479.116 125.485 482.958 129.326C486.199 132.567 484.9 138.085 480.554 139.54L449.751 149.854C444.389 151.649 442.787 158.457 446.785 162.455C450.753 166.423 449.21 173.173 443.913 175.024L413.957 185.49C408.551 187.379 406.976 194.269 411.026 198.319C415.018 202.311 413.554 209.094 408.271 211.084L375.53 223.415C370.194 225.425 368.716 232.274 372.747 236.305C376.794 240.352 375.286 247.231 369.916 249.213L338.13 260.945C332.78 262.919 331.277 269.773 335.309 273.806C339.342 277.838 337.839 284.692 332.489 286.667L305.879 293.365C300.403 295.386 298.865 302.4 302.992 306.527C306.899 310.435 305.342 317.087 300.106 318.854L270.829 328.731C265.472 330.538 263.878 337.344 267.876 341.342C271.849 345.315 270.304 352.074 265.001 353.927L235.059 364.388C229.653 366.277 228.078 373.167 232.128 377.217C236.12 381.209 234.656 387.992 229.373 389.982L196.632 402.313C191.296 404.323 189.818 411.172 193.849 415.203C197.896 419.25 196.388 426.129 191.018 428.111L159.232 439.843C153.882 441.817 152.379 448.671 156.411 452.704C160.444 456.736 158.941 463.59 153.591 465.565L122.031 477.213C116.556 479.234 115.017 486.248 119.144 490.375Z" fill="#031849"/>
<path d="M51.2622 480.476L65.3976 494.611C70.722 499.935 79.7834 495.625 79.0124 488.135L78.7043 485.141C78.3284 481.489 80.4863 478.05 83.938 476.8L120.967 463.389C126.437 461.408 127.993 454.414 123.879 450.301C119.827 446.248 121.267 439.369 126.605 437.283L161.321 423.715C166.594 421.654 168.017 414.858 164.014 410.854C159.898 406.739 161.536 399.732 167.05 397.868L196.061 388.06C201.436 386.243 203.034 379.412 199.021 375.399C195.008 371.387 196.606 364.556 201.981 362.738L231.718 352.685C236.898 350.934 238.436 344.352 234.57 340.486C230.556 336.472 232.394 329.618 237.877 328.15L260.851 321.999C266.406 320.511 268.361 313.632 264.419 309.446C260.721 305.519 262.176 299.097 267.206 297.148L299.865 284.491C305.335 282.51 306.891 275.516 302.777 271.403C298.725 267.35 300.165 260.471 305.503 258.385L340.219 244.817C345.492 242.756 346.915 235.96 342.912 231.956C338.796 227.841 340.434 220.834 345.948 218.97L374.959 209.162C380.334 207.345 381.932 200.514 377.919 196.501C373.906 192.489 375.504 185.658 380.879 183.84L410.616 173.787C415.796 172.036 417.334 165.454 413.468 161.588C409.454 157.574 411.292 150.72 416.775 149.252L439.934 143.051C445.314 141.611 447.116 134.887 443.178 130.949L441.402 129.174C438.334 126.105 439.654 120.871 443.812 119.626C450.211 117.71 448.72 108.255 442.042 108.4L419.305 108.895C413.874 109.013 411.235 115.585 415.076 119.427C418.317 122.668 417.018 128.186 412.672 129.641L381.869 139.955C376.507 141.75 374.905 148.557 378.903 152.556C382.871 156.523 381.329 163.274 376.031 165.124L346.075 175.59C340.669 177.479 339.094 184.37 343.144 188.419C347.136 192.411 345.672 199.194 340.389 201.184L307.648 213.516C302.312 215.525 300.834 222.374 304.865 226.405C308.913 230.453 307.404 237.332 302.034 239.313L270.248 251.045C264.898 253.02 263.395 259.874 267.428 263.906C271.46 267.939 269.957 274.793 264.607 276.767L237.997 283.466C232.521 285.487 230.983 292.501 235.11 296.628C239.017 300.535 237.46 307.188 232.224 308.954L202.947 318.831C197.59 320.639 195.996 327.445 199.994 331.443C203.967 335.415 202.423 342.174 197.119 344.027L167.177 354.488C161.771 356.377 160.196 363.268 164.246 367.317C168.238 371.309 166.774 378.092 161.491 380.082L128.75 392.414C123.414 394.423 121.936 401.272 125.967 405.303C130.015 409.351 128.506 416.23 123.136 418.211L91.3503 429.943C86.0002 431.918 84.497 438.772 88.5295 442.804C92.5621 446.837 91.0588 453.691 85.7087 455.665L54.149 467.314C48.6737 469.334 47.1353 476.349 51.2622 480.476Z" fill="#031849"/>
<path d="M12.3711 441.585L26.5065 455.72C31.8309 461.045 40.8923 456.735 40.1213 449.244L39.8132 446.251C39.4373 442.599 41.5952 439.16 45.0469 437.91L82.0758 424.499C87.5454 422.518 89.1018 415.524 84.9883 411.41C80.9358 407.358 82.3764 400.478 87.7143 398.392L122.429 384.825C127.703 382.764 129.126 375.967 125.123 371.964C121.007 367.848 122.645 360.842 128.159 358.977L157.17 349.17C162.545 347.352 164.143 340.521 160.13 336.509C156.117 332.496 157.715 325.665 163.09 323.848L192.827 313.794C198.006 312.043 199.545 305.462 195.679 301.596C191.665 297.582 193.502 290.728 198.986 289.26L221.96 283.108C227.515 281.621 229.47 274.742 225.528 270.555C221.83 266.628 223.285 260.207 228.315 258.258L260.974 245.601C266.443 243.62 268 236.626 263.886 232.512C259.834 228.46 261.274 221.58 266.612 219.494L301.327 205.927C306.601 203.866 308.024 197.069 304.021 193.066C299.905 188.95 301.543 181.944 307.057 180.079L336.068 170.272C341.443 168.454 343.041 161.623 339.028 157.611C335.015 153.598 336.613 146.767 341.988 144.95L371.725 134.896C376.904 133.145 378.443 126.564 374.577 122.698C370.563 118.684 372.4 111.83 377.884 110.362L401.043 104.16C406.422 102.72 408.225 95.9963 404.287 92.0587L402.511 90.2829C399.442 87.2141 400.763 81.9805 404.921 80.7354C411.32 78.819 409.829 69.3645 403.151 69.5097L380.414 70.004C374.982 70.1221 372.343 76.6945 376.185 80.536C379.426 83.7769 378.127 89.2949 373.781 90.7502L342.978 101.064C337.616 102.859 336.014 109.667 340.012 113.665C343.98 117.633 342.437 124.383 337.14 126.234L307.184 136.7C301.778 138.589 300.203 145.479 304.253 149.529C308.245 153.521 306.781 160.304 301.498 162.294L268.757 174.625C263.421 176.635 261.943 183.484 265.974 187.515C270.022 191.562 268.513 198.441 263.143 200.423L231.357 212.155C226.007 214.129 224.504 220.983 228.536 225.016C232.569 229.048 231.066 235.902 225.716 237.877L199.106 244.575C193.63 246.596 192.092 253.61 196.219 257.737C200.126 261.645 198.569 268.297 193.333 270.063L164.056 279.941C158.699 281.748 157.105 288.554 161.103 292.552C165.076 296.525 163.532 303.284 158.228 305.137L128.286 315.598C122.88 317.487 121.305 324.377 125.355 328.427C129.347 332.419 127.883 339.202 122.6 341.192L89.8586 353.523C84.5234 355.533 83.045 362.382 87.0763 366.413C91.1235 370.46 89.6148 377.339 84.2452 379.321L52.4592 391.053C47.1091 393.027 45.6059 399.881 49.6384 403.914C53.6709 407.946 52.1677 414.8 46.8176 416.775L15.2579 428.423C9.78262 430.444 8.24418 437.458 12.3711 441.585Z" fill="#031849"/>
<path d="M-14.4991 390.673L-0.363612 404.808C4.9608 410.133 14.0221 405.823 13.2512 398.332L12.943 395.338C12.5672 391.687 14.725 388.248 18.1768 386.998L55.2057 373.587C60.6753 371.606 62.2317 364.612 58.1182 360.498C54.0657 356.446 55.5063 349.566 60.8442 347.48L95.5594 333.913C100.833 331.852 102.256 325.055 98.2524 321.051C94.1368 316.936 95.775 309.929 101.289 308.065L130.299 298.258C135.675 296.44 137.272 289.609 133.26 285.597C129.247 281.584 130.844 274.753 136.22 272.936L165.957 262.882C171.136 261.131 172.675 254.55 168.809 250.684C164.795 246.67 166.632 239.816 172.116 238.347L195.09 232.196C200.645 230.708 202.6 223.83 198.658 219.643C194.96 215.716 196.415 209.295 201.445 207.346L234.104 194.689C239.573 192.708 241.13 185.714 237.016 181.6C232.964 177.548 234.404 170.668 239.742 168.582L274.457 155.015C279.731 152.954 281.154 146.157 277.15 142.153C273.035 138.038 274.673 131.031 280.187 129.167L309.197 119.36C314.573 117.542 316.17 110.711 312.158 106.699C308.145 102.686 309.742 95.855 315.118 94.0376L344.855 83.9844C350.034 82.2333 351.573 75.6517 347.707 71.7856C343.693 67.7717 345.53 60.9177 351.014 59.4494L374.173 53.2483C379.552 51.8079 381.355 45.0842 377.417 41.1466L375.641 39.3708C372.572 36.302 373.893 31.0684 378.051 29.8233C384.45 27.9069 382.959 18.4524 376.281 18.5976L353.544 19.0919C348.112 19.21 345.473 25.7824 349.315 29.6239C352.556 32.8648 351.257 38.3828 346.911 39.8381L316.108 50.1521C310.746 51.9473 309.144 58.7547 313.142 62.7529C317.11 66.7205 315.567 73.4709 310.27 75.3216L280.314 85.7876C274.908 87.6766 273.333 94.5668 277.383 98.6165C281.375 102.609 279.911 109.391 274.627 111.381L241.887 123.713C236.551 125.722 235.073 132.571 239.104 136.603C243.151 140.65 241.643 147.529 236.273 149.511L204.487 161.242C199.137 163.217 197.634 170.071 201.666 174.104C205.699 178.136 204.196 184.99 198.845 186.965L172.236 193.663C166.76 195.684 165.222 202.698 169.349 206.825C173.256 210.733 171.699 217.385 166.463 219.151L137.186 229.028C131.829 230.836 130.235 237.642 134.233 241.64C138.206 245.613 136.661 252.372 131.358 254.225L101.416 264.686C96.0096 266.575 94.4352 273.465 98.4849 277.514C102.477 281.507 101.013 288.289 95.7295 290.279L62.9885 302.611C57.6532 304.62 56.1748 311.469 60.2061 315.501C64.2534 319.548 62.7446 326.427 57.3751 328.409L25.5891 340.14C20.239 342.115 18.7358 348.969 22.7683 353.002C26.8008 357.034 25.2976 363.888 19.9475 365.863L-11.6122 377.511C-17.0875 379.532 -18.6259 386.546 -14.4991 390.673Z" fill="#031849"/>
</g>
</g>
<defs>
<clipPath id="clip0_1071_2044">
<rect y="348.604" width="493" height="493" rx="246.5" transform="rotate(-45 0 348.604)" fill="white"/>
</clipPath>
</defs>
</svg>
